<svg width="24" height="30" viewBox="0 0 24 30" fill="none" xmlns="http://www.w3.org/2000/svg">
<path d="M11.1938 5.91637C11.1938 6.05528 11.1665 6.19282 11.1133 6.32115C11.0602 6.44948 10.9822 6.56608 10.884 6.6643C10.7858 6.76252 10.6692 6.84043 10.5409 6.89359C10.4125 6.94674 10.275 6.9741 10.1361 6.9741C9.9972 6.9741 9.85965 6.94674 9.73132 6.89359C9.60299 6.84043 9.48639 6.76252 9.38817 6.6643C9.28995 6.56608 9.21204 6.44948 9.15888 6.32115C9.10573 6.19282 9.07837 6.05528 9.07837 5.91637C9.07837 5.63585 9.18981 5.36681 9.38817 5.16844C9.58653 4.97008 9.85557 4.85864 10.1361 4.85864C10.4166 4.85864 10.6857 4.97008 10.884 5.16844C11.0824 5.36681 11.1938 5.63585 11.1938 5.91637ZM14.3683 6.9741C14.6488 6.9741 14.9178 6.86266 15.1162 6.6643C15.3146 6.46594 15.426 6.1969 15.426 5.91637C15.426 5.63585 15.3146 5.36681 15.1162 5.16844C14.9178 4.97008 14.6488 4.85864 14.3683 4.85864C14.0877 4.85864 13.8187 4.97008 13.6203 5.16844C13.422 5.36681 13.3105 5.63585 13.3105 5.91637C13.3105 6.1969 13.422 6.46594 13.6203 6.6643C13.8187 6.86266 14.0877 6.9741 14.3683 6.9741Z" fill="black"/>
<path fill-rule="evenodd" clip-rule="evenodd" d="M5.24106 0.669147C5.32814 0.582009 5.43154 0.512885 5.54535 0.465723C5.65915 0.418561 5.78114 0.394287 5.90433 0.394287C6.02752 0.394287 6.14951 0.418561 6.26331 0.465723C6.37712 0.512885 6.48052 0.582009 6.5676 0.669147L8.10293 2.20323C9.31837 1.47863 10.7075 1.0971 12.1226 1.09924H12.3814C13.8504 1.09924 15.2245 1.50183 16.401 2.20323L17.9363 0.669147C18.1141 0.503511 18.3492 0.413337 18.5921 0.417623C18.8351 0.421909 19.0668 0.520321 19.2386 0.692125C19.4104 0.863928 19.5089 1.09571 19.5131 1.33864C19.5174 1.58157 19.4273 1.81668 19.2616 1.99444L17.8976 3.35973C19.2343 4.67326 20.0562 6.42219 20.2143 8.28956C20.4835 8.19954 20.7682 8.15369 21.0683 8.15203C21.7845 8.15203 22.4714 8.43655 22.9779 8.94301C23.4843 9.44947 23.7689 10.1364 23.7689 10.8526V17.2003C23.7691 17.6257 23.6688 18.0453 23.4762 18.4246C23.2835 18.804 23.004 19.1325 22.6603 19.3833C22.3166 19.6342 21.9185 19.8002 21.4984 19.868C21.0783 19.9358 20.6482 19.9033 20.2431 19.7733V22.1051C20.2431 23.2466 19.6867 24.2568 18.8315 24.8832V26.7211C18.8315 27.5308 18.5099 28.3074 17.9373 28.88C17.3647 29.4526 16.5881 29.7742 15.7784 29.7742C14.9686 29.7742 14.192 29.4526 13.6194 28.88C13.0469 28.3074 12.7252 27.5308 12.7252 26.7211V25.5433H11.7787V26.7223C11.7787 27.5321 11.4571 28.3087 10.8845 28.8812C10.3119 29.4538 9.53532 29.7755 8.72557 29.7755C7.91582 29.7755 7.13924 29.4538 6.56666 28.8812C5.99408 28.3087 5.6724 27.5321 5.6724 26.7223V24.8832C5.2352 24.5638 4.87959 24.1458 4.63452 23.663C4.38945 23.1803 4.26185 22.6465 4.2621 22.1051V19.7733C3.85696 19.9033 3.42683 19.9358 3.00677 19.868C2.58672 19.8002 2.18862 19.6342 1.84492 19.3833C1.50123 19.1325 1.22166 18.804 1.02901 18.4246C0.836356 18.0453 0.736072 17.6257 0.736329 17.2003V10.8526C0.736231 10.4248 0.837789 10.003 1.03264 9.62211C1.22749 9.24121 1.51005 8.91205 1.85704 8.66175C2.20404 8.41146 2.60554 8.24719 3.02847 8.18248C3.45139 8.11777 3.88364 8.15447 4.2896 8.28956C4.44776 6.42219 5.26967 4.67326 6.60636 3.35973L5.24106 1.99444C5.06546 1.81862 4.96683 1.58028 4.96683 1.33179C4.96683 1.0833 5.06546 0.844967 5.24106 0.669147ZM6.44757 10.0274C6.36511 10.0281 6.28625 10.0613 6.22817 10.1199C6.17009 10.1784 6.1375 10.2575 6.13751 10.34V22.1051C6.1375 22.5185 6.3013 22.915 6.59304 23.208C6.88478 23.5009 7.28069 23.6663 7.6941 23.6679H16.8098C17.2232 23.6663 17.6192 23.5009 17.9109 23.208C18.2026 22.915 18.3664 22.5185 18.3664 22.1051V10.34C18.3664 10.2575 18.3338 10.1784 18.2758 10.1199C18.2177 10.0613 18.1388 10.0281 18.0564 10.0274H6.44757ZM18.0589 8.15203H18.3127C18.1163 6.71823 17.4073 5.40404 16.317 4.45249C15.2266 3.50094 13.8286 2.97641 12.3814 2.9759H12.1226C10.6754 2.97641 9.27732 3.50094 8.18695 4.45249C7.09658 5.40404 6.38765 6.71823 6.19127 8.15203H18.0589ZM14.6006 26.7223V25.5433H16.9561V26.7223C16.9561 26.877 16.9256 27.0301 16.8665 27.173C16.8073 27.3159 16.7205 27.4458 16.6112 27.5551C16.5018 27.6645 16.372 27.7512 16.2291 27.8104C16.0862 27.8696 15.933 27.9001 15.7784 27.9001C15.6237 27.9001 15.4705 27.8696 15.3277 27.8104C15.1848 27.7512 15.0549 27.6645 14.9456 27.5551C14.8362 27.4458 14.7494 27.3159 14.6903 27.173C14.6311 27.0301 14.6006 26.877 14.6006 26.7223ZM7.6916 25.5433H9.90333V26.7223C9.90333 27.0347 9.77924 27.3343 9.55837 27.5551C9.3375 27.776 9.03793 27.9001 8.72557 27.9001C8.41321 27.9001 8.11364 27.776 7.89277 27.5551C7.6719 27.3343 7.54781 27.0347 7.54781 26.7223V25.5433H7.6916ZM21.0683 18.0267C20.8498 18.0267 20.6403 17.9401 20.4857 17.7859C20.331 17.6317 20.2437 17.4224 20.2431 17.204V10.8489C20.2436 10.63 20.331 10.4203 20.4861 10.2659C20.5629 10.1895 20.654 10.1289 20.7542 10.0877C20.8544 10.0464 20.9618 10.0253 21.0701 10.0256C21.1785 10.0258 21.2858 10.0474 21.3858 10.0891C21.4858 10.1308 21.5766 10.1918 21.6531 10.2686C21.7295 10.3454 21.7901 10.4365 21.8313 10.5367C21.8726 10.6369 21.8937 10.7443 21.8934 10.8526V17.2003C21.8934 17.4191 21.8065 17.629 21.6518 17.7837C21.497 17.9385 21.2871 18.0267 21.0683 18.0267ZM4.26085 10.8464C4.26018 10.6275 4.17261 10.4179 4.01739 10.2636C3.86217 10.1093 3.65202 10.023 3.43317 10.0237C3.21432 10.0243 3.00469 10.1119 2.85041 10.2671C2.69613 10.4224 2.60982 10.6325 2.61049 10.8514V17.199C2.60966 17.4179 2.6958 17.6281 2.84997 17.7834C3.00413 17.9387 3.21369 18.0265 3.43254 18.0273C3.65139 18.0281 3.86161 17.942 4.01695 17.7878C4.17228 17.6337 4.26002 17.4241 4.26085 17.2053V10.8464Z" fill="black"/>
</svg>
