<svg width="132" height="39" viewBox="0 0 132 39" fill="none" xmlns="http://www.w3.org/2000/svg">
<path d="M130.96 34.3275C130.96 36.3424 129.294 37.9745 127.233 37.9745H5.26584C3.20599 37.9745 1.534 36.3424 1.534 34.3275V5.24337C1.534 3.2294 3.20599 1.59155 5.26584 1.59155H127.232C129.294 1.59155 130.959 3.2294 130.959 5.24337L130.96 34.3275Z" fill="black"/>
<path d="M126.839 1.63561C129.084 1.63561 130.91 3.41622 130.91 5.60446V33.9618C130.91 36.15 129.084 37.9306 126.839 37.9306H5.65429C3.40994 37.9306 1.58368 36.15 1.58368 33.9618V5.60446C1.58368 3.41622 3.40994 1.63561 5.65429 1.63561H126.839ZM126.839 0.878239H5.65429C2.98943 0.878239 0.806885 3.00622 0.806885 5.60446V33.9618C0.806885 36.56 2.98943 38.688 5.65429 38.688H126.839C129.504 38.688 131.687 36.56 131.687 33.9618V5.60446C131.687 3.00622 129.504 0.878239 126.839 0.878239Z" fill="#A6A6A6"/>
<path d="M30.0154 19.579C29.9873 16.5325 32.5739 15.0503 32.6921 14.9813C31.2273 12.899 28.9567 12.6144 28.1589 12.5918C26.2519 12.3961 24.4021 13.7043 23.4307 13.7043C22.4399 13.7043 20.944 12.6107 19.3317 12.6428C17.257 12.674 15.3161 13.8452 14.2517 15.6638C12.0548 19.372 13.6932 24.8213 15.798 27.8187C16.8508 29.2867 18.0811 30.9257 19.6914 30.868C21.2668 30.8047 21.8553 29.8888 23.7564 29.8888C25.6401 29.8888 26.1927 30.868 27.835 30.8312C29.5258 30.8047 30.5903 29.3566 31.6063 27.8754C32.823 26.1929 33.3116 24.5359 33.331 24.4508C33.2913 24.4376 30.0474 23.2305 30.0154 19.579Z" fill="white"/>
<path d="M26.9131 10.62C27.7604 9.58683 28.3401 8.18126 28.1792 6.75488C26.9528 6.80782 25.4191 7.58197 24.5359 8.59244C23.7545 9.48286 23.0565 10.9423 23.2368 12.3148C24.6144 12.415 26.0289 11.6371 26.9131 10.62Z" fill="white"/>
<path d="M48.3599 10.3392C48.3599 11.4517 48.0177 12.2892 47.3342 12.8516C46.7012 13.3706 45.8015 13.6305 44.6362 13.6305C44.0583 13.6305 43.5639 13.6059 43.1499 13.5568V7.47792C43.6899 7.39285 44.2716 7.34937 44.8999 7.34937C46.0099 7.34937 46.8466 7.58473 47.4108 8.05546C48.0429 8.58763 48.3599 9.34856 48.3599 10.3392ZM47.2887 10.3666C47.2887 9.64536 47.0928 9.09239 46.7012 8.70673C46.3095 8.32202 45.7375 8.12919 44.9842 8.12919C44.6643 8.12919 44.3918 8.14999 44.166 8.19347V12.8148C44.291 12.8337 44.5198 12.8422 44.8524 12.8422C45.6299 12.8422 46.23 12.6314 46.6527 12.2098C47.0754 11.7882 47.2887 11.1738 47.2887 10.3666Z" fill="white"/>
<path d="M54.0401 11.3109C54.0401 11.9962 53.8394 12.5576 53.4381 12.9981C53.0173 13.4509 52.4599 13.6768 51.7638 13.6768C51.0929 13.6768 50.5587 13.4604 50.1603 13.0255C49.7628 12.5917 49.564 12.0444 49.564 11.3846C49.564 10.6946 49.7686 10.1284 50.1796 9.68883C50.5907 9.24929 51.1433 9.02905 51.8394 9.02905C52.5103 9.02905 53.0493 9.24551 53.4575 9.67938C53.8453 10.101 54.0401 10.6454 54.0401 11.3109ZM52.9863 11.343C52.9863 10.9318 52.8952 10.5793 52.7139 10.2853C52.5006 9.92987 52.1971 9.75216 51.8026 9.75216C51.3944 9.75216 51.0842 9.92987 50.8709 10.2853C50.6886 10.5793 50.5985 10.9375 50.5985 11.361C50.5985 11.7721 50.6896 12.1247 50.8709 12.4187C51.091 12.7741 51.3973 12.9518 51.7929 12.9518C52.1807 12.9518 52.4851 12.7713 52.7042 12.4092C52.8923 12.1096 52.9863 11.7542 52.9863 11.343Z" fill="white"/>
<path d="M61.6564 9.11987L60.2264 13.5758H59.2957L58.7033 11.6408C58.553 11.1578 58.4309 10.6776 58.3359 10.2012H58.3175C58.2292 10.6909 58.1071 11.1701 57.95 11.6408L57.3208 13.5758H56.3795L55.0348 9.11987H56.0789L56.5957 11.2382C56.7207 11.7391 56.8235 12.2165 56.9059 12.6683H56.9243C56.9999 12.2959 57.125 11.8214 57.3014 11.2476L57.95 9.12082H58.778L59.3994 11.2022C59.5497 11.7098 59.6718 12.1985 59.7659 12.6693H59.794C59.8628 12.2108 59.9666 11.7221 60.1042 11.2022L60.6588 9.12082H61.6564V9.11987Z" fill="white"/>
<path d="M66.9235 13.5756H65.9075V11.0234C65.9075 10.237 65.6012 9.84376 64.9865 9.84376C64.685 9.84376 64.4417 9.95152 64.2526 10.168C64.0655 10.3844 63.9705 10.6397 63.9705 10.9317V13.5746H62.9545V10.3929C62.9545 10.0016 62.9419 9.5772 62.9177 9.11781H63.8106L63.8581 9.81446H63.8862C64.0045 9.598 64.1809 9.41934 64.4126 9.27661C64.6879 9.11025 64.9962 9.02612 65.3336 9.02612C65.7602 9.02612 66.115 9.16035 66.3971 9.42974C66.7481 9.75963 66.9235 10.2521 66.9235 10.9062V13.5756V13.5756Z" fill="white"/>
<path d="M69.7253 13.5756H68.7103V7.0752H69.7253V13.5756Z" fill="white"/>
<path d="M75.7071 11.3109C75.7071 11.9962 75.5064 12.5576 75.105 12.9981C74.6842 13.4509 74.1258 13.6768 73.4307 13.6768C72.7589 13.6768 72.2247 13.4604 71.8272 13.0255C71.4297 12.5917 71.231 12.0444 71.231 11.3846C71.231 10.6946 71.4355 10.1284 71.8466 9.68883C72.2576 9.24929 72.8102 9.02905 73.5054 9.02905C74.1772 9.02905 74.7153 9.24551 75.1244 9.67938C75.5122 10.101 75.7071 10.6454 75.7071 11.3109ZM74.6523 11.343C74.6523 10.9318 74.5611 10.5793 74.3798 10.2853C74.1675 9.92987 73.8631 9.75216 73.4695 9.75216C73.0604 9.75216 72.7501 9.92987 72.5378 10.2853C72.3556 10.5793 72.2654 10.9375 72.2654 11.361C72.2654 11.7721 72.3565 12.1247 72.5378 12.4187C72.7579 12.7741 73.0642 12.9518 73.4598 12.9518C73.8476 12.9518 74.151 12.7713 74.3701 12.4092C74.5592 12.1096 74.6523 11.7542 74.6523 11.343Z" fill="white"/>
<path d="M80.6243 13.5757H79.712L79.6364 13.0624H79.6082C79.2961 13.4717 78.8511 13.6768 78.2733 13.6768C77.8419 13.6768 77.4928 13.5416 77.2301 13.2732C76.9916 13.0293 76.8724 12.7259 76.8724 12.3658C76.8724 11.8213 77.105 11.4063 77.5733 11.119C78.0406 10.8316 78.6979 10.6908 79.5443 10.6974V10.6142C79.5443 10.0272 79.2282 9.7342 78.5951 9.7342C78.1443 9.7342 77.7468 9.8448 77.4037 10.0641L77.1971 9.41377C77.6218 9.15761 78.1463 9.02905 78.7648 9.02905C79.9592 9.02905 80.5583 9.64346 80.5583 10.8723V12.5132C80.5583 12.9584 80.5806 13.3129 80.6243 13.5757ZM79.5695 12.0444V11.3572C78.4487 11.3383 77.8884 11.6379 77.8884 12.2552C77.8884 12.4877 77.9524 12.6616 78.0833 12.7779C78.2141 12.8942 78.3809 12.9518 78.5796 12.9518C78.8026 12.9518 79.011 12.8828 79.2011 12.7458C79.392 12.6077 79.5094 12.4329 79.553 12.2183C79.5636 12.1701 79.5695 12.1115 79.5695 12.0444Z" fill="white"/>
<path d="M86.3975 13.5756H85.4959L85.4484 12.8601H85.4203C85.1323 13.4045 84.6418 13.6768 83.9525 13.6768C83.4018 13.6768 82.9433 13.466 82.5797 13.0444C82.2161 12.6228 82.0349 12.0755 82.0349 11.4035C82.0349 10.6822 82.2317 10.0981 82.6272 9.65193C83.0102 9.23602 83.4794 9.02807 84.0378 9.02807C84.6515 9.02807 85.081 9.22941 85.3253 9.63302H85.3447V7.0752H86.3616V12.3752C86.3616 12.809 86.3733 13.2089 86.3975 13.5756ZM85.3447 11.6965V10.9535C85.3447 10.825 85.335 10.721 85.3165 10.6416C85.2593 10.4034 85.1362 10.203 84.9491 10.0414C84.7601 9.87973 84.5322 9.79844 84.2695 9.79844C83.8904 9.79844 83.5938 9.94495 83.3756 10.2389C83.1595 10.5329 83.0499 10.9082 83.0499 11.3666C83.0499 11.8071 83.1536 12.1644 83.3621 12.4395C83.5821 12.7325 83.8788 12.879 84.2501 12.879C84.5836 12.879 84.8502 12.7571 85.0528 12.5122C85.2487 12.2863 85.3447 12.0141 85.3447 11.6965Z" fill="white"/>
<path d="M95.087 11.3109C95.087 11.9962 94.8863 12.5576 94.4849 12.9981C94.0642 13.4509 93.5077 13.6768 92.8106 13.6768C92.1407 13.6768 91.6065 13.4604 91.2071 13.0255C90.8096 12.5917 90.6109 12.0444 90.6109 11.3846C90.6109 10.6946 90.8154 10.1284 91.2265 9.68883C91.6376 9.24929 92.1902 9.02905 92.8872 9.02905C93.5571 9.02905 94.0971 9.24551 94.5043 9.67938C94.8921 10.101 95.087 10.6454 95.087 11.3109ZM94.0341 11.343C94.0341 10.9318 93.943 10.5793 93.7617 10.2853C93.5474 9.92987 93.245 9.75216 92.8494 9.75216C92.4422 9.75216 92.132 9.92987 91.9177 10.2853C91.7355 10.5793 91.6453 10.9375 91.6453 11.361C91.6453 11.7721 91.7364 12.1247 91.9177 12.4187C92.1378 12.7741 92.4442 12.9518 92.8397 12.9518C93.2275 12.9518 93.5329 12.7713 93.752 12.4092C93.9391 12.1096 94.0341 11.7542 94.0341 11.343Z" fill="white"/>
<path d="M100.55 13.5756H99.5349V11.0234C99.5349 10.237 99.2286 9.84376 98.613 9.84376C98.3115 9.84376 98.0681 9.95152 97.88 10.168C97.692 10.3844 97.5979 10.6397 97.5979 10.9317V13.5746H96.5809V10.3929C96.5809 10.0016 96.5693 9.5772 96.5451 9.11781H97.437L97.4845 9.81446H97.5126C97.6319 9.598 97.8083 9.41934 98.039 9.27661C98.3153 9.11025 98.6227 9.02612 98.961 9.02612C99.3866 9.02612 99.7414 9.16035 100.024 9.42974C100.375 9.75963 100.55 10.2521 100.55 10.9062V13.5756V13.5756Z" fill="white"/>
<path d="M107.388 9.86174H106.269V12.0264C106.269 12.5765 106.468 12.8515 106.861 12.8515C107.044 12.8515 107.195 12.8364 107.314 12.8052L107.34 13.5567C107.14 13.6304 106.876 13.6673 106.551 13.6673C106.15 13.6673 105.838 13.5482 105.612 13.31C105.385 13.0718 105.272 12.671 105.272 12.1086V9.86174H104.604V9.11973H105.272V8.30304L106.268 8.01001V9.11878H107.387V9.86174H107.388Z" fill="white"/>
<path d="M112.766 13.5756H111.749V11.0424C111.749 10.2437 111.443 9.84381 110.829 9.84381C110.358 9.84381 110.036 10.0754 109.86 10.5386C109.83 10.6359 109.812 10.755 109.812 10.8949V13.5747H108.797V7.0752H109.812V9.76063H109.832C110.152 9.27194 110.61 9.02807 111.205 9.02807C111.625 9.02807 111.973 9.16229 112.25 9.43169C112.594 9.76725 112.766 10.2663 112.766 10.9261V13.5756V13.5756Z" fill="white"/>
<path d="M118.315 11.1369C118.315 11.3146 118.301 11.464 118.277 11.5859H115.23C115.243 12.0264 115.389 12.3619 115.671 12.5945C115.929 12.8024 116.261 12.9064 116.669 12.9064C117.119 12.9064 117.53 12.8365 117.901 12.6956L118.06 13.3838C117.626 13.5671 117.116 13.6588 116.526 13.6588C115.818 13.6588 115.261 13.4556 114.858 13.0491C114.452 12.6427 114.252 12.0973 114.252 11.4129C114.252 10.7409 114.439 10.1813 114.816 9.73511C115.209 9.25871 115.742 9.02051 116.414 9.02051C117.071 9.02051 117.57 9.25871 117.908 9.73511C118.18 10.1132 118.315 10.5811 118.315 11.1369ZM117.345 10.8807C117.353 10.5868 117.286 10.3335 117.148 10.1198C116.972 9.84476 116.703 9.70675 116.34 9.70675C116.008 9.70675 115.738 9.84098 115.531 10.1104C115.363 10.3249 115.263 10.5811 115.23 10.8807H117.345Z" fill="white"/>
<path d="M52.8147 30.6572H50.613L49.407 26.9622H45.2149L44.0661 30.6572H41.9226L46.0758 18.0779H48.6411L52.8147 30.6572ZM49.0434 25.412L47.9527 22.1273C47.8374 21.7917 47.6212 21.0015 47.3022 19.7576H47.2634C47.1364 20.2926 46.9319 21.0828 46.6507 22.1273L45.5794 25.412H49.0434V25.412Z" fill="white"/>
<path d="M63.4954 26.0103C63.4954 27.553 63.0679 28.7723 62.2128 29.6675C61.4469 30.4643 60.4959 30.8623 59.3606 30.8623C58.1352 30.8623 57.2549 30.4331 56.7188 29.5749H56.68V34.3531H54.6131V24.5726C54.6131 23.6028 54.5869 22.6075 54.5365 21.5866H56.3542L56.4696 23.0243H56.5084C57.1977 21.9411 58.2438 21.4004 59.6476 21.4004C60.745 21.4004 61.6612 21.8229 62.3941 22.6689C63.129 23.5158 63.4954 24.6293 63.4954 26.0103ZM61.3897 26.0841C61.3897 25.2012 61.1861 24.4734 60.777 23.9006C60.3301 23.3032 59.73 23.0045 58.9777 23.0045C58.4677 23.0045 58.0043 23.1708 57.5903 23.4988C57.1754 23.8297 56.9039 24.2616 56.7769 24.7967C56.7129 25.0462 56.681 25.2504 56.681 25.4111V26.9235C56.681 27.5832 56.8884 28.14 57.3034 28.5946C57.7183 29.0493 58.2573 29.2762 58.9205 29.2762C59.699 29.2762 60.3049 28.9831 60.7382 28.399C61.1726 27.8139 61.3897 27.0426 61.3897 26.0841Z" fill="white"/>
<path d="M74.1956 26.0103C74.1956 27.553 73.7681 28.7723 72.912 29.6675C72.1471 30.4643 71.196 30.8623 70.0608 30.8623C68.8354 30.8623 67.9551 30.4331 67.4199 29.5749H67.3811V34.3531H65.3142V24.5726C65.3142 23.6028 65.288 22.6075 65.2376 21.5866H67.0554L67.1708 23.0243H67.2095C67.8979 21.9411 68.9439 21.4004 70.3487 21.4004C71.4452 21.4004 72.3614 21.8229 73.0962 22.6689C73.8282 23.5158 74.1956 24.6293 74.1956 26.0103ZM72.0899 26.0841C72.0899 25.2012 71.8853 24.4734 71.4762 23.9006C71.0293 23.3032 70.4311 23.0045 69.6778 23.0045C69.1669 23.0045 68.7045 23.1708 68.2895 23.4988C67.8746 23.8297 67.6041 24.2616 67.4771 24.7967C67.4141 25.0462 67.3811 25.2504 67.3811 25.4111V26.9235C67.3811 27.5832 67.5886 28.14 68.0016 28.5946C68.4165 29.0484 68.9556 29.2762 69.6206 29.2762C70.3991 29.2762 71.0051 28.9831 71.4384 28.399C71.8727 27.8139 72.0899 27.0426 72.0899 26.0841Z" fill="white"/>
<path d="M86.159 27.1295C86.159 28.1995 85.778 29.0701 85.0131 29.7422C84.1725 30.4766 83.0024 30.8434 81.4987 30.8434C80.1104 30.8434 78.9974 30.5825 78.155 30.0598L78.6339 28.3801C79.5413 28.9151 80.537 29.1835 81.6218 29.1835C82.4003 29.1835 83.0063 29.0115 83.4415 28.6693C83.8749 28.3272 84.0911 27.8678 84.0911 27.295C84.0911 26.7845 83.9127 26.3544 83.555 26.0056C83.1992 25.6568 82.6049 25.3326 81.775 25.033C79.5161 24.2116 78.3876 23.0083 78.3876 21.4259C78.3876 20.3918 78.7832 19.544 79.5753 18.8842C80.3644 18.2234 81.4173 17.8936 82.7338 17.8936C83.9079 17.8936 84.8832 18.093 85.6617 18.4909L85.1449 20.1338C84.4178 19.7481 83.5957 19.5553 82.6757 19.5553C81.9485 19.5553 81.3804 19.7302 80.9733 20.078C80.6291 20.389 80.4565 20.768 80.4565 21.217C80.4565 21.7142 80.6533 22.1254 81.0489 22.4487C81.393 22.7474 82.0184 23.0707 82.9258 23.4195C84.0358 23.8552 84.8512 24.3647 85.3757 24.9489C85.8982 25.5311 86.159 26.2599 86.159 27.1295Z" fill="white"/>
<path d="M92.9929 23.0989H90.7146V27.5028C90.7146 28.6229 91.116 29.1825 91.9206 29.1825C92.29 29.1825 92.5964 29.1513 92.8387 29.0889L92.8959 30.6192C92.4887 30.7676 91.9526 30.8423 91.2885 30.8423C90.4722 30.8423 89.8343 30.5994 89.3738 30.1145C88.9152 29.6286 88.6845 28.8138 88.6845 27.6691V23.097H87.3272V21.5846H88.6845V19.9238L90.7146 19.3264V21.5846H92.9929V23.0989Z" fill="white"/>
<path d="M103.272 26.0472C103.272 27.4415 102.863 28.5862 102.047 29.4813C101.191 30.4029 100.055 30.8623 98.6381 30.8623C97.2731 30.8623 96.1863 30.4209 95.3758 29.538C94.5654 28.6552 94.1601 27.5407 94.1601 26.1975C94.1601 24.792 94.577 23.6407 95.4137 22.7455C96.2484 21.8494 97.3749 21.4014 98.7913 21.4014C100.156 21.4014 101.255 21.8428 102.084 22.7266C102.877 23.5839 103.272 24.6908 103.272 26.0472ZM101.128 26.1125C101.128 25.2759 100.945 24.5585 100.573 23.9601C100.14 23.2361 99.5204 22.875 98.7176 22.875C97.8868 22.875 97.2557 23.237 96.8223 23.9601C96.451 24.5594 96.2678 25.2882 96.2678 26.1503C96.2678 26.9868 96.451 27.7043 96.8223 28.3016C97.2692 29.0257 97.8936 29.3868 98.6992 29.3868C99.4884 29.3868 100.108 29.0181 100.555 28.2827C100.936 27.6731 101.128 26.9481 101.128 26.1125Z" fill="white"/>
<path d="M109.991 23.3589C109.786 23.3221 109.568 23.3032 109.339 23.3032C108.612 23.3032 108.05 23.5707 107.654 24.1066C107.31 24.5792 107.138 25.1766 107.138 25.8979V30.6572H105.072L105.091 24.4431C105.091 23.3977 105.065 22.4458 105.013 21.5875H106.814L106.889 23.323H106.947C107.165 22.7266 107.509 22.2464 107.98 21.8862C108.441 21.562 108.938 21.4004 109.474 21.4004C109.665 21.4004 109.838 21.4136 109.991 21.4373V23.3589Z" fill="white"/>
<path d="M119.235 25.6927C119.235 26.0538 119.211 26.3581 119.159 26.6067H112.958C112.983 27.5028 113.282 28.1881 113.858 28.6607C114.381 29.0833 115.056 29.295 115.886 29.295C116.804 29.295 117.642 29.1523 118.395 28.8658L118.719 30.2648C117.839 30.6391 116.799 30.8253 115.6 30.8253C114.158 30.8253 113.025 30.4113 112.201 29.5842C111.379 28.7571 110.967 27.6465 110.967 26.2532C110.967 24.8854 111.35 23.7464 112.117 22.838C112.92 21.8682 114.004 21.3833 115.369 21.3833C116.71 21.3833 117.725 21.8682 118.415 22.838C118.96 23.6084 119.235 24.5612 119.235 25.6927ZM117.264 25.1699C117.277 24.5726 117.143 24.0564 116.862 23.6207C116.505 23.0602 115.955 22.7804 115.215 22.7804C114.54 22.7804 113.99 23.0535 113.57 23.6018C113.226 24.0375 113.021 24.5603 112.958 25.169H117.264V25.1699Z" fill="white"/>
</svg>
