<svg width="24" height="30" viewBox="0 0 24 30" fill="none" xmlns="http://www.w3.org/2000/svg">
<path d="M16.4311 5.63701C14.9847 7.08471 12.2376 6.68539 12.2376 6.68539C12.2376 6.68539 11.8396 3.93957 13.2873 2.49187C14.7337 1.0455 17.4808 1.44482 17.4808 1.44482C17.4808 1.44482 17.8788 4.18931 16.4311 5.63701ZM1.50403 17.5004C1.50403 21.8822 4.43682 26.9158 7.40568 27.9802C8.43403 28.3488 9.49843 27.84 10.3825 27.2056C11.053 26.7248 11.865 26.2667 12.522 26.2667C13.1764 26.2667 13.9911 26.7248 14.6602 27.2056C15.5443 27.84 16.6087 28.3488 17.6384 27.9802C19.7472 27.2243 21.8386 24.4638 22.8723 21.356C20.869 20.7818 19.408 18.9708 19.408 16.8246C19.408 14.8588 20.6353 13.1733 22.3808 12.4642C21.2563 10.4662 19.4187 9.40717 17.3419 9.40717C16.2682 9.40717 15.2799 9.83988 14.4839 10.3594C13.2098 11.1874 11.8329 11.1874 10.5602 10.3594C9.76287 9.83988 8.77592 9.40717 7.70216 9.40717C4.2779 9.40717 1.50403 12.2852 1.50403 17.5004Z" stroke="black" stroke-width="2.00328" stroke-linecap="round" stroke-linejoin="round"/>
</svg>
