<svg width="30" height="30" viewBox="0 0 30 30" fill="none" xmlns="http://www.w3.org/2000/svg">
<path d="M24.1925 24.1925C29.2692 19.1159 29.2692 10.8841 24.1925 5.80747C19.1159 0.730843 10.8841 0.730843 5.80747 5.80747C0.730843 10.8841 0.730843 19.1159 5.80747 24.1925M20.5154 20.5154C23.562 17.4694 23.562 12.5306 20.5154 9.48461C17.4694 6.43799 12.5306 6.43799 9.48461 9.48461C6.43799 12.5306 6.43799 17.4694 9.48461 20.5154" stroke="#06C328" stroke-width="2.60007" stroke-linecap="round" stroke-linejoin="round"/>
<path d="M15 17.6C15.6896 17.6 16.3509 17.3261 16.8386 16.8385C17.3262 16.3509 17.6001 15.6895 17.6001 15C17.6001 14.3104 17.3262 13.6491 16.8386 13.1614C16.3509 12.6738 15.6896 12.3999 15 12.3999C14.3104 12.3999 13.6491 12.6738 13.1615 13.1614C12.6739 13.6491 12.4 14.3104 12.4 15C12.4 15.6895 12.6739 16.3509 13.1615 16.8385C13.6491 17.3261 14.3104 17.6 15 17.6ZM15 17.6V28.0003M15 28.0003H17.6001M15 28.0003H12.4" stroke="#06C328" stroke-width="2.60007" stroke-linecap="round" stroke-linejoin="round"/>
</svg>
