<svg width="18" height="16" viewBox="0 0 18 16" fill="none" xmlns="http://www.w3.org/2000/svg">
<path d="M2.70856 15.434C2.14949 15.434 1.61331 15.2119 1.21798 14.8166C0.822649 14.4213 0.600555 13.8851 0.600555 13.326V10.3146C0.600555 10.075 0.695738 9.84517 0.865165 9.67574C1.03459 9.50632 1.26438 9.41113 1.50399 9.41113C1.74359 9.41113 1.97338 9.50632 2.14281 9.67574C2.31224 9.84517 2.40742 10.075 2.40742 10.3146V13.326C2.40742 13.4922 2.54233 13.6272 2.70856 13.6272H15.3566C15.4365 13.6272 15.5131 13.5954 15.5696 13.5389C15.626 13.4825 15.6578 13.4059 15.6578 13.326V10.3146C15.6578 10.075 15.7529 9.84517 15.9224 9.67574C16.0918 9.50632 16.3216 9.41113 16.5612 9.41113C16.8008 9.41113 17.0306 9.50632 17.2 9.67574C17.3694 9.84517 17.4646 10.075 17.4646 10.3146V13.326C17.4646 13.8851 17.2425 14.4213 16.8472 14.8166C16.4519 15.2119 15.9157 15.434 15.3566 15.434H2.70856Z" fill="black"/>
<path d="M8.12916 7.83195V0.979116C8.12916 0.739511 8.22434 0.509719 8.39377 0.340293C8.56319 0.170866 8.79298 0.0756836 9.03259 0.0756836C9.27219 0.0756836 9.50199 0.170866 9.67141 0.340293C9.84084 0.509719 9.93602 0.739511 9.93602 0.979116V7.83195L12.309 5.46014C12.3929 5.3763 12.4924 5.3098 12.602 5.26443C12.7115 5.21905 12.8289 5.1957 12.9475 5.1957C13.066 5.1957 13.1834 5.21905 13.293 5.26443C13.4025 5.3098 13.5021 5.3763 13.5859 5.46014C13.6697 5.54398 13.7362 5.64351 13.7816 5.75306C13.827 5.8626 13.8503 5.98 13.8503 6.09857C13.8503 6.21713 13.827 6.33454 13.7816 6.44408C13.7362 6.55362 13.6697 6.65316 13.5859 6.73699L9.67101 10.6519C9.50162 10.8211 9.272 10.9161 9.03259 10.9161C8.79318 10.9161 8.56356 10.8211 8.39416 10.6519L4.47929 6.73699C4.39545 6.65316 4.32894 6.55362 4.28357 6.44408C4.2382 6.33454 4.21484 6.21713 4.21484 6.09857C4.21484 5.98 4.2382 5.8626 4.28357 5.75306C4.32894 5.64351 4.39545 5.54398 4.47929 5.46014C4.56313 5.3763 4.66266 5.3098 4.7722 5.26443C4.88174 5.21905 4.99915 5.1957 5.11771 5.1957C5.23628 5.1957 5.35369 5.21905 5.46323 5.26443C5.57277 5.3098 5.6723 5.3763 5.75614 5.46014L8.12916 7.83195Z" fill="black"/>
</svg>
