<svg width="20" height="24" viewBox="0 0 20 24" fill="none" xmlns="http://www.w3.org/2000/svg">
<path d="M19.7142 14.3299L10.0542 23.9399L0.394159 14.3299C0.280186 14.2432 0.18619 14.1329 0.118537 14.0066C0.0508832 13.8803 0.0111509 13.741 0.00202928 13.598C-0.00709237 13.4551 0.0146102 13.3118 0.065667 13.178C0.116724 13.0441 0.195943 12.9228 0.297962 12.8222C0.399981 12.7216 0.522418 12.6442 0.656983 12.595C0.791549 12.5459 0.935101 12.5262 1.07792 12.5374C1.22074 12.5486 1.3595 12.5903 1.4848 12.6597C1.61009 12.7292 1.719 12.8247 1.80416 12.9399L9.05416 20.1299V0.999941C9.05416 0.734724 9.15952 0.480371 9.34705 0.292835C9.53459 0.105299 9.78894 -5.91278e-05 10.0542 -5.91278e-05C10.3194 -5.91278e-05 10.5737 0.105299 10.7613 0.292835C10.9488 0.480371 11.0542 0.734724 11.0542 0.999941V20.1299L18.3042 12.9399C18.4925 12.753 18.7473 12.6484 19.0127 12.6494C19.2781 12.6503 19.5322 12.7566 19.7192 12.9449C19.9061 13.1332 20.0107 13.3881 20.0097 13.6535C20.0088 13.9188 19.9025 14.173 19.7142 14.3599V14.3299Z" fill="black"/>
</svg>
