<svg width="131" height="39" viewBox="0 0 131 39" fill="none" xmlns="http://www.w3.org/2000/svg">
<path d="M126.072 38.302H4.88659C2.22173 38.302 0.0391846 36.174 0.0391846 33.5758V5.21847C0.0391846 2.62023 2.22173 0.492256 4.88659 0.492256H126.072C128.737 0.492256 130.919 2.62023 130.919 5.21847V33.5758C130.919 36.174 128.737 38.302 126.072 38.302Z" fill="black"/>
<path d="M126.072 1.24963C128.316 1.24963 130.142 3.03024 130.142 5.21847V33.5758C130.142 35.764 128.316 37.5446 126.072 37.5446H4.88659C2.64224 37.5446 0.815981 35.764 0.815981 33.5758V5.21847C0.815981 3.03024 2.64224 1.24963 4.88659 1.24963H126.072ZM126.072 0.492256H4.88659C2.22173 0.492256 0.0391846 2.62023 0.0391846 5.21847V33.5758C0.0391846 36.174 2.22173 38.302 4.88659 38.302H126.072C128.737 38.302 130.919 36.174 130.919 33.5758V5.21847C130.919 2.62023 128.737 0.492256 126.072 0.492256Z" fill="#A6A6A6"/>
<path d="M10.1557 7.61826C9.87096 7.90892 9.70615 8.36146 9.70615 8.94751V29.8516C9.70615 30.4376 9.87096 30.8902 10.1557 31.1808L10.226 31.2446L22.2403 19.5354V19.2589L10.226 7.54973L10.1557 7.61826Z" fill="url(#paint0_linear_939_2846)"/>
<path d="M26.2406 23.4404L22.2403 19.5354V19.2589L26.2454 15.3539L26.3351 15.4047L31.0783 18.036C32.4319 18.7827 32.4319 20.0116 31.0783 20.763L26.3351 23.3896L26.2406 23.4404Z" fill="url(#paint1_linear_939_2846)"/>
<path d="M26.3351 23.3896L22.2403 19.3972L10.1557 31.1808C10.6053 31.6416 11.3385 31.6971 12.1722 31.2363L26.3351 23.3896Z" fill="url(#paint2_linear_939_2846)"/>
<path d="M26.3351 15.4047L12.1722 7.55804C11.3385 7.10196 10.6053 7.15749 10.1557 7.6183L22.2403 19.3972L26.3351 15.4047Z" fill="url(#paint3_linear_939_2846)"/>
<path d="M46.0094 10.1749C46.0094 10.9642 45.7671 11.5964 45.2896 12.0678C44.7406 12.6267 44.0256 12.9079 43.1495 12.9079C42.3121 12.9079 41.5971 12.6219 41.0106 12.0583C40.4228 11.4865 40.1295 10.7846 40.1295 9.94454C40.1295 9.10445 40.4228 8.40261 41.0106 7.83547C41.5971 7.26714 42.3121 6.9812 43.1495 6.9812C43.5664 6.9812 43.9638 7.06509 44.3431 7.22106C44.7212 7.3782 45.0291 7.59088 45.252 7.85319L44.7455 8.35181C44.3565 7.904 43.8269 7.68305 43.1495 7.68305C42.5387 7.68305 42.0091 7.891 41.5595 8.31045C41.1148 8.73108 40.8918 9.27578 40.8918 9.94454C40.8918 10.6133 41.1148 11.1627 41.5595 11.5834C42.0091 11.9981 42.5387 12.2108 43.1495 12.2108C43.7978 12.2108 44.3432 11.9981 44.7734 11.5786C45.0569 11.301 45.2181 10.9181 45.2605 10.429H43.1495V9.74604H45.9658C45.9998 9.89373 46.0094 10.0367 46.0094 10.1749Z" fill="white" stroke="white" stroke-width="0.148405" stroke-miterlimit="10"/>
<path d="M50.4776 7.80726H47.8321V9.60323H50.217V10.2862H47.8321V12.0821H50.4776V12.7781H47.0832V7.11133H50.4776V7.80726Z" fill="white" stroke="white" stroke-width="0.148405" stroke-miterlimit="10"/>
<path d="M53.6308 12.7781H52.8818V7.80726H51.2592V7.11133H55.2546V7.80726H53.6308V12.7781Z" fill="white" stroke="white" stroke-width="0.148405" stroke-miterlimit="10"/>
<path d="M58.1461 12.7781V7.11133H58.8938V12.7781H58.1461Z" fill="white" stroke="white" stroke-width="0.148405" stroke-miterlimit="10"/>
<path d="M62.2082 12.7781H61.4653V7.80726H59.8366V7.11133H63.8369V7.80726H62.2082V12.7781Z" fill="white" stroke="white" stroke-width="0.148405" stroke-miterlimit="10"/>
<path d="M71.4014 12.0489C70.8282 12.6219 70.118 12.9079 69.271 12.9079C68.419 12.9079 67.7089 12.6219 67.1357 12.0489C66.5637 11.477 66.2789 10.7752 66.2789 9.94454C66.2789 9.11391 66.5637 8.41206 67.1357 7.84019C67.7089 7.26714 68.419 6.9812 69.271 6.9812C70.1132 6.9812 70.8233 7.26714 71.3966 7.84492C71.9734 8.42152 72.2582 9.11863 72.2582 9.94454C72.2582 10.7752 71.9734 11.477 71.4014 12.0489ZM67.6895 11.5739C68.1209 11.9981 68.6456 12.2108 69.271 12.2108C69.8914 12.2108 70.421 11.9981 70.8476 11.5739C71.2778 11.1497 71.4959 10.605 71.4959 9.94454C71.4959 9.28405 71.2778 8.73935 70.8476 8.31518C70.421 7.891 69.8914 7.67832 69.271 7.67832C68.6456 7.67832 68.1209 7.891 67.6895 8.31518C67.2593 8.73935 67.0412 9.28405 67.0412 9.94454C67.0412 10.605 67.2593 11.1497 67.6895 11.5739Z" fill="white" stroke="white" stroke-width="0.148405" stroke-miterlimit="10"/>
<path d="M73.3088 12.7781V7.11133H74.2177L77.0437 11.5185H77.0764L77.0437 10.4291V7.11133H77.7914V12.7781H77.011L74.0516 8.15346H74.0189L74.0516 9.24758V12.7781H73.3088Z" fill="white" stroke="white" stroke-width="0.148405" stroke-miterlimit="10"/>
<path d="M66.0948 21.0537C63.8177 21.0537 61.9575 22.7434 61.9575 25.0746C61.9575 27.3869 63.8177 29.0942 66.0948 29.0942C68.3767 29.0942 70.2369 27.3869 70.2369 25.0746C70.2369 22.7434 68.3767 21.0537 66.0948 21.0537ZM66.0948 27.5109C64.8453 27.5109 63.7704 26.5054 63.7704 25.0746C63.7704 23.6248 64.8453 22.637 66.0948 22.637C67.3442 22.637 68.4239 23.6248 68.4239 25.0746C68.4239 26.5054 67.3442 27.5109 66.0948 27.5109ZM57.0677 21.0537C54.7858 21.0537 52.9304 22.7434 52.9304 25.0746C52.9304 27.3869 54.7858 29.0942 57.0677 29.0942C59.3484 29.0942 61.2049 27.3869 61.2049 25.0746C61.2049 22.7434 59.3484 21.0537 57.0677 21.0537ZM57.0677 27.5109C55.8171 27.5109 54.7385 26.5054 54.7385 25.0746C54.7385 23.6248 55.8171 22.637 57.0677 22.637C58.3171 22.637 59.392 23.6248 59.392 25.0746C59.392 26.5054 58.3171 27.5109 57.0677 27.5109ZM46.3258 22.2861V23.9946H50.5104C50.388 24.9493 50.0608 25.6512 49.5591 26.1403C48.9483 26.7311 47.997 27.3869 46.3258 27.3869C43.7507 27.3869 41.7341 25.3605 41.7341 22.8497C41.7341 20.3389 43.7507 18.3125 46.3258 18.3125C47.7183 18.3125 48.7314 18.843 49.4791 19.5307L50.714 18.3267C49.6681 17.3531 48.2769 16.6052 46.3258 16.6052C42.7945 16.6052 39.8267 19.4066 39.8267 22.8497C39.8267 26.2927 42.7945 29.0942 46.3258 29.0942C48.2345 29.0942 49.6681 28.4845 50.7951 27.3408C51.95 26.2148 52.31 24.6315 52.31 23.353C52.31 22.956 52.276 22.5909 52.2154 22.2861H46.3258ZM90.2506 23.6106C89.9101 22.7115 88.8594 21.0537 86.7192 21.0537C84.5985 21.0537 82.8328 22.6831 82.8328 25.0746C82.8328 27.3266 84.5803 29.0942 86.9228 29.0942C88.817 29.0942 89.91 27.9682 90.3596 27.3124L88.9539 26.3991C88.4849 27.0678 87.8463 27.5109 86.9228 27.5109C86.0055 27.5109 85.3474 27.1009 84.9257 26.2927L90.4408 24.0679L90.2506 23.6106ZM84.6276 24.9493C84.5803 23.3991 85.8625 22.6051 86.7811 22.6051C87.5009 22.6051 88.1117 22.956 88.3153 23.4582L84.6276 24.9493ZM80.145 28.8496H81.9579V17.0341H80.145V28.8496ZM77.1759 21.9493H77.1153C76.7081 21.4791 75.9314 21.0537 74.9473 21.0537C72.8823 21.0537 70.9943 22.8213 70.9943 25.0876C70.9943 27.3408 72.8823 29.0942 74.9473 29.0942C75.9314 29.0942 76.7081 28.6653 77.1153 28.1809H77.1759V28.7575C77.1759 30.2947 76.3337 31.1206 74.9752 31.1206C73.8676 31.1206 73.1805 30.3407 72.8969 29.685L71.3203 30.3266C71.7747 31.3923 72.9781 32.7039 74.9752 32.7039C77.1008 32.7039 78.8943 31.4845 78.8943 28.5176V21.2983H77.1759V21.9493ZM75.1024 27.5109C73.853 27.5109 72.8072 26.4912 72.8072 25.0876C72.8072 23.6709 73.853 22.637 75.1024 22.637C76.3337 22.637 77.3044 23.6709 77.3044 25.0876C77.3044 26.4912 76.3337 27.5109 75.1024 27.5109ZM98.7384 17.0341H94.4024V28.8496H96.2105V24.3727H98.7384C100.746 24.3727 102.716 22.956 102.716 20.7028C102.716 18.4508 100.742 17.0341 98.7384 17.0341ZM98.7856 22.7292H96.2105V18.6776H98.7856C100.136 18.6776 100.906 19.7706 100.906 20.7028C100.906 21.6173 100.136 22.7292 98.7856 22.7292ZM109.963 21.0313C108.656 21.0313 107.298 21.5937 106.739 22.8402L108.344 23.496C108.689 22.8402 109.324 22.6276 109.995 22.6276C110.933 22.6276 111.885 23.177 111.899 24.147V24.2711C111.572 24.0868 110.871 23.8138 110.01 23.8138C108.282 23.8138 106.521 24.7414 106.521 26.4723C106.521 28.0556 107.936 29.0753 109.527 29.0753C110.744 29.0753 111.416 28.5401 111.837 27.9174H111.899V28.8307H113.645V24.2983C113.645 22.2034 112.041 21.0313 109.963 21.0313ZM109.744 27.5062C109.153 27.5062 108.329 27.2203 108.329 26.5054C108.329 25.5909 109.357 25.24 110.246 25.24C111.042 25.24 111.416 25.4113 111.899 25.637C111.757 26.7311 110.791 27.5062 109.744 27.5062ZM120.008 21.29L117.929 26.4121H117.867L115.719 21.29H113.769L116.997 28.4479L115.155 32.4309H117.045L122.019 21.29H120.008ZM103.709 28.8496H105.522V17.0341H103.709V28.8496Z" fill="white"/>
<defs>
<linearGradient id="paint0_linear_939_2846" x1="21.1736" y1="30.0693" x2="5.31522" y2="13.8043" gradientUnits="userSpaceOnUse">
<stop stop-color="#00A0FF"/>
<stop offset="0.0066" stop-color="#00A1FF"/>
<stop offset="0.2601" stop-color="#00BEFF"/>
<stop offset="0.5122" stop-color="#00D2FF"/>
<stop offset="0.7604" stop-color="#00DFFF"/>
<stop offset="1" stop-color="#00E3FF"/>
</linearGradient>
<linearGradient id="paint1_linear_939_2846" x1="32.841" y1="19.3958" x2="9.38255" y2="19.3958" gradientUnits="userSpaceOnUse">
<stop stop-color="#FFE000"/>
<stop offset="0.4087" stop-color="#FFBD00"/>
<stop offset="0.7754" stop-color="#FFA500"/>
<stop offset="1" stop-color="#FF9C00"/>
</linearGradient>
<linearGradient id="paint2_linear_939_2846" x1="24.1085" y1="17.2268" x2="2.60324" y2="-4.82988" gradientUnits="userSpaceOnUse">
<stop stop-color="#FF3A44"/>
<stop offset="1" stop-color="#C31162"/>
</linearGradient>
<linearGradient id="paint3_linear_939_2846" x1="7.11378" y1="38.1355" x2="16.7168" y2="28.2863" gradientUnits="userSpaceOnUse">
<stop stop-color="#32A071"/>
<stop offset="0.0685" stop-color="#2DA771"/>
<stop offset="0.4762" stop-color="#15CF74"/>
<stop offset="0.8009" stop-color="#06E775"/>
<stop offset="1" stop-color="#00F076"/>
</linearGradient>
</defs>
</svg>
