<svg width="20" height="21" viewBox="0 0 20 21" fill="none" xmlns="http://www.w3.org/2000/svg">
<path d="M9.99995 0.804504C4.50713 0.804504 0.0544434 5.25719 0.0544434 10.75C0.0544434 16.2428 4.50713 20.6955 9.99995 20.6955C15.4928 20.6955 19.9455 16.2428 19.9455 10.75C19.9455 5.25719 15.4928 0.804504 9.99995 0.804504ZM7.56537 14.8722H5.55141V8.39106H7.56537V14.8722ZM6.54596 7.59542C5.90986 7.59542 5.49857 7.14476 5.49857 6.5874C5.49857 6.01864 5.92229 5.58146 6.57186 5.58146C7.22142 5.58146 7.61924 6.01864 7.63168 6.5874C7.63168 7.14476 7.22142 7.59542 6.54596 7.59542ZM14.9209 14.8722H12.9069V11.2804C12.9069 10.4444 12.6148 9.87667 11.8865 9.87667C11.3302 9.87667 10.9997 10.261 10.8536 10.6309C10.7997 10.7624 10.7863 10.9489 10.7863 11.1344V14.8712H8.77127V10.4579C8.77127 9.64875 8.74537 8.97225 8.71843 8.39003H10.4682L10.5604 9.2903H10.6008C10.866 8.86762 11.5156 8.24395 12.6024 8.24395C13.9274 8.24395 14.9209 9.13179 14.9209 11.0401V14.8722Z" fill="#1E1E1E"/>
</svg>
