<svg width="34" height="22" viewBox="0 0 34 22" fill="none" xmlns="http://www.w3.org/2000/svg">
<path d="M23.0052 21.9938C22.705 21.9938 22.417 21.8745 22.2047 21.6622C21.9924 21.4499 21.8731 21.1619 21.8731 20.8617C21.8731 20.5614 21.9924 20.2735 22.2047 20.0612C22.417 19.8489 22.705 19.7296 23.0052 19.7296H27.8819C28.4117 19.7294 28.9337 19.6014 29.4034 19.3564C29.8731 19.1114 30.2768 18.7566 30.5801 18.3222C30.8834 17.8878 31.0773 17.3866 31.1454 16.8612C31.2136 16.3358 31.1539 15.8017 30.9715 15.3043C30.789 14.8069 30.4892 14.3609 30.0976 14.0041C29.7059 13.6474 29.2339 13.3904 28.7216 13.2552C28.2094 13.1199 27.6721 13.1102 27.1553 13.227C26.6385 13.3438 26.1576 13.5836 25.7533 13.926L25.7583 13.9223C25.528 14.1066 25.2349 14.1939 24.9412 14.1656C24.6476 14.1372 24.3766 13.9955 24.1858 13.7705C23.995 13.5455 23.8994 13.255 23.9194 12.9607C23.9394 12.6664 24.0733 12.3914 24.2928 12.1943L24.2941 12.1931C25.039 11.5609 25.9384 11.1376 26.9004 10.9664L26.934 10.9614C26.9218 9.0942 26.3128 7.2798 25.1958 5.78347C24.0788 4.28713 22.5124 3.18734 20.7257 2.64485C18.9389 2.10237 17.0255 2.14565 15.2652 2.76836C13.5048 3.39107 11.9897 4.56055 10.9415 6.10586L10.9216 6.13696C11.778 6.44061 12.5771 6.88642 13.2853 7.45567L13.2692 7.44323C13.4538 7.58897 13.5884 7.78854 13.6545 8.01426C13.7206 8.23998 13.7149 8.48067 13.638 8.70296C13.5612 8.92526 13.4171 9.11814 13.2257 9.25488C13.0344 9.39161 12.8052 9.46542 12.57 9.46607C12.3086 9.46693 12.055 9.37627 11.8534 9.20979L11.8559 9.21104C10.8187 8.37152 9.52407 7.91465 8.18966 7.91721H8.17225C6.60632 7.91721 5.10578 8.53927 3.99851 9.64655C2.89123 10.7538 2.26917 12.2556 2.26917 13.8215C2.26917 15.3875 2.89123 16.8892 3.99851 17.9965C5.10578 19.1038 6.60757 19.7259 8.17349 19.7259H10.7773C11.0776 19.7259 11.3655 19.8451 11.5778 20.0574C11.7901 20.2697 11.9094 20.5577 11.9094 20.858C11.9094 21.1582 11.7901 21.4462 11.5778 21.6585C11.3655 21.8708 11.0776 21.99 10.7773 21.99H8.16976C6.003 21.99 3.92499 21.1293 2.39287 19.5972C0.86074 18.0651 0 15.987 0 13.8203C0 11.6535 0.86074 9.57553 2.39287 8.0434C3.92499 6.51127 6.003 5.65053 8.16976 5.65053C8.29665 5.65053 8.42106 5.66048 8.5492 5.6667C10.4688 2.26171 14.0616 0 18.182 0C21.1046 0.000329798 23.9075 1.16142 25.9743 3.22794C28.0411 5.29447 29.2025 8.09723 29.2031 11.0199V11.0423C31.6514 11.6569 33.4367 13.8377 33.4367 16.4366C33.4363 17.9093 32.8511 19.3217 31.8097 20.3631C30.7683 21.4045 29.3559 21.9897 27.8832 21.99L23.0052 21.9938ZM15.5831 20.8617V15.6528L14.303 16.9342C14.0905 17.1465 13.8024 17.2657 13.502 17.2656C13.2016 17.2655 12.9136 17.146 12.7013 16.9336C12.4889 16.7211 12.3697 16.4329 12.3698 16.1326C12.37 15.8322 12.4894 15.5441 12.7019 15.3318L15.9153 12.1172C15.9868 12.0491 16.0661 11.9898 16.1517 11.9405L16.1579 11.938C16.1786 11.9256 16.1998 11.9148 16.2213 11.9057C16.3029 11.8636 16.3888 11.8306 16.4776 11.8074L16.4851 11.8062H16.4975C16.5941 11.7901 16.6922 11.7855 16.7899 11.7925H16.7861H16.7986C16.8201 11.7925 16.8409 11.795 16.8608 11.7999H16.8595C16.9657 11.8124 17.0644 11.8377 17.1556 11.8758L17.1482 11.8733C17.2095 11.9 17.2686 11.9317 17.3248 11.9679L17.3211 11.9654L17.3684 11.9977C17.4111 12.0283 17.4518 12.0615 17.4903 12.0973L17.5176 12.1197L20.7335 15.3343C20.8388 15.4394 20.9222 15.5643 20.9792 15.7017C21.0362 15.839 21.0655 15.9863 21.0656 16.135C21.0656 16.2838 21.0364 16.4311 20.9795 16.5685C20.9227 16.7059 20.8393 16.8308 20.7342 16.936C20.629 17.0413 20.5042 17.1247 20.3668 17.1817C20.2294 17.2387 20.0822 17.268 19.9334 17.2681C19.7847 17.2681 19.6374 17.2389 19.5 17.182C19.3625 17.1252 19.2376 17.0418 19.1324 16.9367L17.8511 15.6553V20.8679C17.8511 21.1682 17.7318 21.4561 17.5195 21.6684C17.3072 21.8807 17.0192 22 16.719 22C16.4187 22 16.1308 21.8807 15.9184 21.6684C15.7061 21.4561 15.5869 21.1682 15.5869 20.8679L15.5831 20.8617Z" fill="#06C328"/>
</svg>
