<svg width="28" height="27" viewBox="0 0 28 27" fill="none" xmlns="http://www.w3.org/2000/svg">
<path d="M24.685 0.0651855C25.4721 0.0651855 26.227 0.377863 26.7836 0.934433C27.3401 1.491 27.6528 2.24587 27.6528 3.03298V19.3559C27.6528 20.143 27.3401 20.8979 26.7836 21.4544C26.227 22.011 25.4721 22.3237 24.685 22.3237H18.7494V23.8076H20.2333C20.6269 23.8076 21.0043 23.9639 21.2826 24.2422C21.5609 24.5205 21.7172 24.8979 21.7172 25.2915C21.7172 25.685 21.5609 26.0625 21.2826 26.3407C21.0043 26.619 20.6269 26.7754 20.2333 26.7754H8.36212C7.96857 26.7754 7.59113 26.619 7.31285 26.3407C7.03456 26.0625 6.87822 25.685 6.87822 25.2915C6.87822 24.8979 7.03456 24.5205 7.31285 24.2422C7.59113 23.9639 7.96857 23.8076 8.36212 23.8076H9.84602V22.3237H3.91042C3.12332 22.3237 2.36844 22.011 1.81187 21.4544C1.2553 20.8979 0.942627 20.143 0.942627 19.3559V3.03298C0.942627 2.24587 1.2553 1.491 1.81187 0.934433C2.36844 0.377863 3.12332 0.0651855 3.91042 0.0651855H24.685ZM15.7816 22.3237H12.8138V23.8076H15.7816V22.3237ZM24.685 3.03298H3.91042V19.3559H24.685V3.03298Z" fill="black"/>
</svg>
