<svg width="29" height="29" viewBox="0 0 29 29" fill="none" xmlns="http://www.w3.org/2000/svg">
<path d="M28.1579 18.1861L26.0304 16.3735C26.1311 15.7585 26.183 15.1306 26.183 14.5026C26.183 13.8747 26.1311 13.2467 26.0304 12.6317L28.1579 10.8191C28.3183 10.6822 28.4332 10.4999 28.4871 10.2964C28.5411 10.0928 28.5316 9.87776 28.4599 9.67974L28.4307 9.59559C27.845 7.9643 26.968 6.45207 25.842 5.132L25.7835 5.06402C25.6469 4.90397 25.4649 4.78891 25.2614 4.73402C25.0579 4.67913 24.8424 4.68697 24.6435 4.75652L22.0028 5.69197C21.0284 4.89571 19.9403 4.26776 18.7645 3.82755L18.2545 1.07625C18.2161 0.869226 18.1153 0.678771 17.9656 0.530186C17.8159 0.3816 17.6244 0.281917 17.4165 0.244381L17.3289 0.228197C15.6366 -0.0760655 13.8567 -0.0760655 12.1644 0.228197L12.0767 0.244381C11.8689 0.281917 11.6774 0.3816 11.5277 0.530186C11.378 0.678771 11.2772 0.869226 11.2388 1.07625L10.7256 3.8405C9.55916 4.28082 8.47294 4.90843 7.50999 5.69844L4.84983 4.75652C4.65094 4.68642 4.43535 4.67829 4.23171 4.73322C4.02807 4.78814 3.84603 4.90352 3.70976 5.06402L3.6513 5.132C2.52664 6.45302 1.64976 7.96499 1.0626 9.59559L1.03337 9.67974C0.887206 10.0843 1.00738 10.5375 1.33544 10.8191L3.4889 12.6512C3.38821 13.2597 3.33949 13.8812 3.33949 14.4994C3.33949 15.1209 3.38821 15.7423 3.4889 16.3476L1.33544 18.1797C1.17497 18.3166 1.06012 18.4989 1.00616 18.7024C0.952205 18.9059 0.961694 19.121 1.03337 19.319L1.0626 19.4032C1.6505 21.0346 2.52098 22.5397 3.6513 23.8668L3.70976 23.9348C3.84636 24.0948 4.02841 24.2099 4.23193 24.2648C4.43545 24.3196 4.65088 24.3118 4.84983 24.2423L7.50999 23.3003C8.47791 24.0934 9.55951 24.7213 10.7256 25.1583L11.2388 27.9225C11.2772 28.1296 11.378 28.32 11.5277 28.4686C11.6774 28.6172 11.8689 28.7169 12.0767 28.7544L12.1644 28.7706C13.8722 29.0765 15.6211 29.0765 17.3289 28.7706L17.4165 28.7544C17.6244 28.7169 17.8159 28.6172 17.9656 28.4686C18.1153 28.32 18.2161 28.1296 18.2545 27.9225L18.7645 25.1712C19.9398 24.7322 21.034 24.1022 22.0028 23.3068L24.6435 24.2423C24.8424 24.3124 25.0579 24.3205 25.2616 24.2656C25.4652 24.2106 25.6473 24.0953 25.7835 23.9348L25.842 23.8668C26.9723 22.5364 27.8428 21.0346 28.4307 19.4032L28.4599 19.319C28.6061 18.9209 28.4859 18.4677 28.1579 18.1861ZM23.7243 13.0137C23.8055 13.5024 23.8477 14.0042 23.8477 14.5059C23.8477 15.0076 23.8055 15.5093 23.7243 15.998L23.5099 17.296L25.9362 19.3643C25.5684 20.2088 25.1041 21.0082 24.5525 21.7467L21.5383 20.6817L20.5184 21.5168C19.7422 22.1513 18.8782 22.6497 17.9427 22.9993L16.7052 23.4622L16.1238 26.6019C15.2065 26.7055 14.2803 26.7055 13.363 26.6019L12.7816 23.4557L11.5538 22.9864C10.6281 22.6368 9.76738 22.1383 8.99759 21.5071L7.97771 20.6688L4.94402 21.7434C4.39186 21.0022 3.93063 20.2027 3.56035 19.3611L6.01263 17.2734L5.80151 15.9786C5.72356 15.4963 5.68133 14.9979 5.68133 14.5059C5.68133 14.0106 5.72031 13.5154 5.80151 13.0331L6.01263 11.7384L3.56035 9.65061C3.92738 8.8058 4.39186 8.00954 4.94402 7.26831L7.97771 8.34293L8.99759 7.50459C9.76738 6.87341 10.6281 6.37494 11.5538 6.02536L12.7848 5.5625L13.3662 2.41629C14.2789 2.31272 15.2111 2.31272 16.1271 2.41629L16.7085 5.55602L17.946 6.01889C18.8782 6.36847 19.7454 6.86694 20.5217 7.50136L21.5416 8.33646L24.5558 7.27154C25.1079 8.01278 25.5692 8.81227 25.9394 9.65385L23.5131 11.7222L23.7243 13.0137ZM14.7499 8.48535C11.5928 8.48535 9.03332 11.036 9.03332 14.1822C9.03332 17.3284 11.5928 19.879 14.7499 19.879C17.907 19.879 20.4665 17.3284 20.4665 14.1822C20.4665 11.036 17.907 8.48535 14.7499 8.48535ZM17.3224 16.7458C16.985 17.083 16.584 17.3503 16.1425 17.5326C15.701 17.7148 15.2277 17.8082 14.7499 17.8074C13.7787 17.8074 12.866 17.4287 12.1774 16.7458C11.8391 16.4095 11.5707 16.0099 11.3879 15.57C11.2051 15.13 11.1113 14.6584 11.1121 14.1822C11.1121 13.2144 11.4921 12.3048 12.1774 11.6186C12.866 10.9324 13.7787 10.5569 14.7499 10.5569C15.7211 10.5569 16.6338 10.9324 17.3224 11.6186C17.6607 11.9548 17.929 12.3544 18.1119 12.7944C18.2947 13.2343 18.3885 13.706 18.3877 14.1822C18.3877 15.15 18.0077 16.0595 17.3224 16.7458Z" fill="#06C428"/>
</svg>
