<svg width="28" height="22" viewBox="0 0 28 22" fill="none" xmlns="http://www.w3.org/2000/svg">
<path d="M25.2871 6.26839L23.582 8.82615C24.3977 10.453 24.797 12.2569 24.7442 14.0761C24.6914 15.8952 24.1881 17.6729 23.2794 19.2497H4.21998C3.03897 17.2009 2.54959 14.8261 2.82441 12.4772C3.09922 10.1284 4.1236 7.93069 5.74567 6.20985C7.36775 4.489 9.50117 3.33665 11.8297 2.92363C14.1581 2.51061 16.5577 2.85891 18.6727 3.9169L21.2305 2.21172C18.5208 0.455555 15.2796 -0.291083 12.0747 0.102634C8.86979 0.49635 5.90565 2.00531 3.70163 4.36512C1.49762 6.72492 0.1943 9.78506 0.020049 13.0093C-0.154202 16.2336 0.811725 19.4164 2.74858 22H24.7508C26.4376 19.7465 27.3921 17.0296 27.4855 14.2164C27.579 11.4031 26.8068 8.62886 25.2734 6.26839H25.2871Z" fill="#06C328"/>
<path d="M11.8108 15.6879C12.0662 15.9436 12.3695 16.1465 12.7034 16.2849C13.0373 16.4233 13.3952 16.4945 13.7566 16.4945C14.118 16.4945 14.4759 16.4233 14.8098 16.2849C15.1437 16.1465 15.447 15.9436 15.7024 15.6879L23.4857 4.01294L11.8108 11.7962C11.5551 12.0517 11.3522 12.355 11.2138 12.6889C11.0754 13.0227 11.0042 13.3806 11.0042 13.7421C11.0042 14.1035 11.0754 14.4614 11.2138 14.7953C11.3522 15.1291 11.5551 15.4325 11.8108 15.6879Z" fill="#06C328"/>
</svg>
