<svg width="39" height="27" viewBox="0 0 39 27" fill="none" xmlns="http://www.w3.org/2000/svg">
<path d="M26.8134 26.0845C26.4634 26.0845 26.1278 25.9455 25.8804 25.698C25.6329 25.4506 25.4939 25.115 25.4939 24.765C25.4939 24.415 25.6329 24.0794 25.8804 23.832C26.1278 23.5845 26.4634 23.4455 26.8134 23.4455H32.4974C33.1149 23.4453 33.7232 23.2961 34.2707 23.0105C34.8182 22.7249 35.2887 22.3114 35.6422 21.8051C35.9957 21.2988 36.2217 20.7146 36.3011 20.1023C36.3806 19.4899 36.311 18.8674 36.0984 18.2877C35.8857 17.7079 35.5363 17.1881 35.0798 16.7723C34.6233 16.3565 34.0731 16.057 33.4761 15.8993C32.8791 15.7416 32.2528 15.7304 31.6505 15.8665C31.0482 16.0026 30.4876 16.2821 30.0164 16.6813L30.0223 16.6769C29.7538 16.8918 29.4122 16.9935 29.0699 16.9604C28.7277 16.9274 28.4118 16.7622 28.1894 16.5C27.967 16.2378 27.8556 15.8992 27.8789 15.5561C27.9022 15.2131 28.0583 14.8926 28.3141 14.6629L28.3156 14.6614C29.1839 13.9245 30.2321 13.4312 31.3533 13.2317L31.3925 13.2259C31.3784 11.0496 30.6685 8.93482 29.3666 7.19079C28.0647 5.44676 26.239 4.16491 24.1565 3.53262C22.074 2.90034 19.8439 2.95078 17.7921 3.67657C15.7403 4.40236 13.9745 5.76544 12.7528 7.56655L12.7296 7.6028C13.7277 7.95671 14.6591 8.47632 15.4846 9.1398L15.4657 9.1253C15.6809 9.29517 15.8378 9.52778 15.9149 9.79086C15.9919 10.0539 15.9852 10.3345 15.8956 10.5936C15.8061 10.8527 15.6381 11.0775 15.4151 11.2368C15.192 11.3962 14.9249 11.4822 14.6508 11.483C14.3461 11.484 14.0506 11.3783 13.8156 11.1843L13.8185 11.1858C12.6096 10.2073 11.1006 9.67477 9.54535 9.67775H9.52505C7.69991 9.67775 5.95097 10.4028 4.6604 11.6934C3.36983 12.9839 2.6448 14.7343 2.6448 16.5595C2.6448 18.3846 3.36983 20.135 4.6604 21.4255C5.95097 22.7161 7.70136 23.4412 9.5265 23.4412H12.5614C12.9113 23.4412 13.2469 23.5802 13.4944 23.8276C13.7418 24.0751 13.8809 24.4107 13.8809 24.7607C13.8809 25.1106 13.7418 25.4462 13.4944 25.6937C13.2469 25.9411 12.9113 26.0802 12.5614 26.0802H9.52215C6.99672 26.0802 4.57472 25.0769 2.78897 23.2912C1.00322 21.5054 0 19.0834 0 16.558C0 14.0326 1.00322 11.6106 2.78897 9.82482C4.57472 8.03907 6.99672 7.03585 9.52215 7.03585C9.67005 7.03585 9.81505 7.04745 9.9644 7.0547C12.2018 3.08605 16.3894 0.449951 21.1917 0.449951C24.5982 0.450336 27.8651 1.80363 30.274 4.21224C32.6829 6.62085 34.0365 9.88757 34.0373 13.2941V13.3202C36.8909 14.0365 38.9716 16.5783 38.9716 19.6074C38.9713 21.3239 38.2892 22.9701 37.0754 24.1839C35.8616 25.3977 34.2154 26.0798 32.4989 26.0802L26.8134 26.0845ZM18.1627 24.765V18.6939L16.6707 20.1874C16.423 20.4348 16.0872 20.5738 15.7371 20.5736C15.387 20.5735 15.0512 20.4343 14.8038 20.1866C14.5563 19.939 14.4174 19.6031 14.4175 19.253C14.4176 18.9029 14.5568 18.5672 14.8045 18.3198L18.5499 14.573C18.6332 14.4936 18.7257 14.4245 18.8253 14.3671L18.8326 14.3642C18.8568 14.3497 18.8814 14.3371 18.9066 14.3265C19.0016 14.2774 19.1018 14.239 19.2052 14.2119L19.214 14.2105H19.2285C19.341 14.1917 19.4554 14.1864 19.5692 14.1945H19.5648H19.5794C19.6045 14.1945 19.6287 14.1974 19.6519 14.2032H19.6504C19.7741 14.2177 19.8892 14.2472 19.9955 14.2917L19.9868 14.2888C20.0583 14.3199 20.1271 14.3567 20.1927 14.399L20.1884 14.3961L20.2435 14.4338C20.2932 14.4694 20.3407 14.5081 20.3856 14.5498L20.4175 14.5759L24.1657 18.3227C24.2883 18.4452 24.3856 18.5907 24.452 18.7508C24.5184 18.9109 24.5526 19.0826 24.5527 19.2559C24.5528 19.4293 24.5187 19.601 24.4524 19.7612C24.3861 19.9213 24.289 20.0669 24.1664 20.1895C24.0439 20.3122 23.8984 20.4094 23.7383 20.4759C23.5781 20.5423 23.4065 20.5765 23.2331 20.5765C23.0598 20.5766 22.8881 20.5425 22.7279 20.4762C22.5677 20.41 22.4222 20.3128 22.2996 20.1903L20.8061 18.6968V24.7723C20.8061 25.1222 20.667 25.4578 20.4196 25.7053C20.1721 25.9527 19.8365 26.0918 19.4866 26.0918C19.1366 26.0918 18.801 25.9527 18.5535 25.7053C18.3061 25.4578 18.1671 25.1222 18.1671 24.7723L18.1627 24.765Z" fill="#06C428"/>
</svg>
